# xmcd
#
# Track frame offsets:
#	150
#	21940
#	41120
#	59573
#	74510
#	89953
#	106143
#	125510
#	141460
#	159938
#	172868
#	183715
#
# Disc length: 2729 seconds
# Revision: 4
# Processed by: cddbd v1.5.2PL0 Copyright (c) Steve Scherf et al.
# Submitted via: dBpowerAMP V12.0
#
DISCID=b40aa70c
DTITLE=Lloyd Jones - Trouble Monkey
DYEAR=1995
DGENRE=Blues
TTITLE0=Can't Get You off of My Mind
TTITLE1=I Broke My Baby's Heart
TTITLE2=Trouble Monkey
TTITLE3=Old Friends
TTITLE4=I'll Be Laughing (When He Makes You Cry)
TTITLE5=(Just About to) Bust Up a Love
TTITLE6=Don't Call Me Today
TTITLE7=No More Crying
TTITLE8=Long, Long Way to Go
TTITLE9=Rose Mary
TTITLE10=When I Get Back Home
TTITLE11=Drop Down Mama
EXTD=
EXTT0=
EXTT1=
EXTT2=
EXTT3=
EXTT4=
EXTT5=
EXTT6=
EXTT7=
EXTT8=
EXTT9=
EXTT10=
EXTT11=
PLAYORDER=
